<svg xmlns="http://www.w3.org/2000/svg" xmlns:xlink="http://www.w3.org/1999/xlink" viewBox="0 0 30 30" fill="#1C2AAF">
  <path d="M15 2C10.582 2 7 5.582 7 10C7 16 14 18 14 22C14 22.552 14.448 23 15 23C15.552 23 16 22.552 16 22C16 18 23 16 23 10C23 5.582 19.418 2 15 2 z M 15 8C16.105 8 17 8.895 17 10C17 11.105 16.105 12 15 12C13.895 12 13 11.105 13 10C13 8.895 13.895 8 15 8 z M 6 17C5.583 17 5.2095 17.259438 5.0625 17.648438L2.0625 25.648438C1.9475 25.956437 1.9917344 26.298359 2.1777344 26.568359C2.3657344 26.838359 2.672 27 3 27L27 27C27.328 27 27.635266 26.838359 27.822266 26.568359C28.009266 26.299359 28.0525 25.956437 27.9375 25.648438L24.9375 17.648438C24.7905 17.259438 24.417 17 24 17L22.023438 17C21.475437 17.612 20.909953 18.171266 20.376953 18.697266C20.271953 18.799266 20.171312 18.9 20.070312 19L23.306641 19L25.556641 25L4.4433594 25L6.6933594 19L9.9296875 19C9.8286875 18.9 9.729 18.799266 9.625 18.697266C9.091 18.171266 8.5245625 17.612 7.9765625 17L6 17 z" fill="#1C2AAF" />
</svg>