<svg xmlns="http://www.w3.org/2000/svg" xmlns:xlink="http://www.w3.org/1999/xlink" viewBox="0 0 30 30" fill="#1C2AAF">
  <path d="M26 3 A 1 1 0 0 0 25.716797 3.0429688 A 1 1 0 0 0 25.636719 3.0683594L3.6503906 10.060547L3.6503906 10.064453 A 1 1 0 0 0 3 11 A 1 1 0 0 0 3.4824219 11.853516L10.164062 17.154297L23.373047 6.6269531L12.845703 19.835938L18.142578 26.513672 A 1 1 0 0 0 19 27 A 1 1 0 0 0 19.935547 26.349609L19.939453 26.349609L26.9375 4.34375 A 1 1 0 0 0 26.957031 4.2832031 A 1 1 0 0 0 27 4 A 1 1 0 0 0 26 3 z" fill="#1C2AAF" />
</svg>