<svg xmlns="http://www.w3.org/2000/svg" xmlns:xlink="http://www.w3.org/1999/xlink" viewBox="0 0 32 32" fill="#1C2AAF">
  <path d="M5 5L5 23L13 23L13 24L8.1875 24L5 27L27 27L23.8125 24L19 24L19 23L27 23L27 5 Z M 7 7L25 7L25 21L7 21 Z M 13.28125 9.28125L9.28125 13.28125L8.59375 14L9.28125 14.71875L13.28125 18.71875L14.71875 17.28125L11.4375 14L14.71875 10.71875 Z M 18.71875 9.28125L17.28125 10.71875L20.5625 14L17.28125 17.28125L18.71875 18.71875L22.71875 14.71875L23.40625 14L22.71875 13.28125Z" fill="#1C2AAF" />
</svg>