<svg xmlns="http://www.w3.org/2000/svg" xmlns:xlink="http://www.w3.org/1999/xlink" viewBox="0 0 50 50" fill="#1C2AAF">
  <path d="M16.800781 2C13.820781 2 11 4.92 11 8L11 16.650391L17 10L17 8L33 8L33 10L39 16.650391L39 7.5996094C39 4.5596094 36.440391 2 33.400391 2L16.800781 2 z M 15.753906 14.333984L6.6582031 24.5L15.753906 34.666016L17.246094 33.333984L9.3417969 24.5L17.246094 15.666016L15.753906 14.333984 z M 34.246094 14.333984L32.753906 15.666016L40.658203 24.5L32.753906 33.333984L34.246094 34.666016L43.341797 24.5L34.246094 14.333984 z M 11 32.349609L11 42C11 45.72 14.49 48 17 48L33.400391 48C36.440391 48 39 45.440391 39 42.400391L39 32.349609L33 39L33 41L17 41L17 39L11 32.349609 z M 25 43C25.83 43 26.5 43.67 26.5 44.5C26.5 45.33 25.83 46 25 46C24.17 46 23.5 45.33 23.5 44.5C23.5 43.67 24.17 43 25 43 z" fill="#1C2AAF" />
</svg>