<svg width="94" height="32" viewBox="0 0 94 32" fill="none" xmlns="http://www.w3.org/2000/svg">
<path d="M55.028 29L47.072 17.876V29H40.016V3.62H47.072V14.564L54.956 3.62H63.092L53.768 15.932L63.56 29H55.028ZM78.7011 3.62C81.3651 3.62 83.6931 4.16 85.6851 5.24C87.7011 6.296 89.2491 7.784 90.3291 9.704C91.4091 11.624 91.9491 13.82 91.9491 16.292C91.9491 18.74 91.3971 20.924 90.2931 22.844C89.2131 24.764 87.6651 26.276 85.6491 27.38C83.6571 28.46 81.3411 29 78.7011 29H68.6571V3.62H78.7011ZM78.1611 22.772C80.2251 22.772 81.8451 22.208 83.0211 21.08C84.1971 19.952 84.7851 18.356 84.7851 16.292C84.7851 14.204 84.1971 12.596 83.0211 11.468C81.8451 10.316 80.2251 9.74 78.1611 9.74H75.7131V22.772H78.1611Z" fill="white"/>
<path d="M6.30709 1.34619C6.30709 1.34619 11.2686 2.57696 14.4994 5.96158C17.1532 8.74523 17.3263 10.3462 16.384 11.2693L15.1917 12.4616L19.5379 16.8077L21.8071 14.5385C21.9321 14.6635 22.5282 15.2164 23.3071 16C23.8456 16.5385 23.7302 17.5818 23.5379 17.9616C23.4225 18.1923 23.5379 18.577 23.5379 18.577L25.9609 21C26.4417 21.4808 27.2494 21.4808 27.7302 21L31.5379 17.1539C32.0186 16.6731 32.0138 15.9039 31.5379 15.4231L29.1532 13C29.1532 13 28.7879 12.8366 28.6148 12.9231C28.235 13.1154 27.1196 13.2356 26.5763 12.6923C25.86 11.976 25.2494 11.3654 25.1148 11.2308L25.384 10.9616C25.735 10.6106 25.8167 10.0914 25.6532 9.65388C25.6484 9.64427 25.6581 9.62504 25.6532 9.61542C25.5956 9.46638 25.5042 9.351 25.384 9.23081L22.7686 6.61542C21.3359 5.18273 20.0379 3.88465 19.6917 3.5385C17.5234 1.36542 6.30709 1.34619 6.30709 1.34619ZM13.5379 14.1154L0.384014 27.2693C-0.0967548 27.75 -0.0967548 28.5193 0.384014 29L2.9994 31.6154C3.48017 32.0962 4.2494 32.0962 4.73017 31.6154L17.884 18.4616L13.5379 14.1154Z" fill="white"/>
</svg>
