<svg width="94" height="32" viewBox="0 0 94 32" fill="none" xmlns="http://www.w3.org/2000/svg">
<path d="M55.028 29L47.072 17.876V29H40.016V3.62H47.072V14.564L54.956 3.62H63.092L53.768 15.932L63.56 29H55.028ZM78.7011 3.62C81.3651 3.62 83.6931 4.16 85.6851 5.24C87.7011 6.296 89.2491 7.784 90.3291 9.704C91.4091 11.624 91.9491 13.82 91.9491 16.292C91.9491 18.74 91.3971 20.924 90.2931 22.844C89.2131 24.764 87.6651 26.276 85.6491 27.38C83.6571 28.46 81.3411 29 78.7011 29H68.6571V3.62H78.7011ZM78.1611 22.772C80.2251 22.772 81.8451 22.208 83.0211 21.08C84.1971 19.952 84.7851 18.356 84.7851 16.292C84.7851 14.204 84.1971 12.596 83.0211 11.468C81.8451 10.316 80.2251 9.74 78.1611 9.74H75.7131V22.772H78.1611Z" fill="#1C2AAF"/>
<path d="M6.30709 1.34607C6.30709 1.34607 11.2686 2.57684 14.4994 5.96145C17.1532 8.74511 17.3263 10.3461 16.384 11.2691L15.1917 12.4615L19.5379 16.8076L21.8071 14.5384C21.9321 14.6634 22.5282 15.2163 23.3071 15.9999C23.8456 16.5384 23.7302 17.5816 23.5379 17.9615C23.4225 18.1922 23.5379 18.5768 23.5379 18.5768L25.9609 20.9999C26.4417 21.4807 27.2494 21.4807 27.7302 20.9999L31.5379 17.1538C32.0186 16.673 32.0138 15.9038 31.5379 15.423L29.1532 12.9999C29.1532 12.9999 28.7879 12.8365 28.6148 12.923C28.235 13.1153 27.1196 13.2355 26.5763 12.6922C25.86 11.9759 25.2494 11.3653 25.1148 11.2307L25.384 10.9615C25.735 10.6105 25.8167 10.0913 25.6532 9.65376C25.6484 9.64415 25.6581 9.62492 25.6532 9.6153C25.5956 9.46626 25.5042 9.35088 25.384 9.23069L22.7686 6.6153C21.3359 5.18261 20.0379 3.88453 19.6917 3.53838C17.5234 1.3653 6.30709 1.34607 6.30709 1.34607ZM13.5379 14.1153L0.384014 27.2691C-0.0967548 27.7499 -0.0967548 28.5191 0.384014 28.9999L2.9994 31.6153C3.48017 32.0961 4.2494 32.0961 4.73017 31.6153L17.884 18.4615L13.5379 14.1153Z" fill="#1C2AAF"/>
</svg>
