<svg xmlns="http://www.w3.org/2000/svg" xmlns:xlink="http://www.w3.org/1999/xlink" viewBox="0 0 24 24" fill="#1C2AAF">
  <path d="M5 3C3.895 3 3 3.895 3 5L3 9L3 19C3 20.093063 3.9069372 21 5 21L19 21C20.093063 21 21 20.093063 21 19L21 8L21 5C21 3.895 20.105 3 19 3L5 3 z M 6 5C6.552 5 7 5.448 7 6C7 6.552 6.552 7 6 7C5.448 7 5 6.552 5 6C5 5.448 5.448 5 6 5 z M 9 5C9.552 5 10 5.448 10 6C10 6.552 9.552 7 9 7C8.448 7 8 6.552 8 6C8 5.448 8.448 5 9 5 z M 12 5L19 5L19 7L12 7L12 5 z M 5 9L19 9L19 19L5 19L5 9 z M 7 11L7 13L12 13L12 11L7 11 z M 14 11L14 17L17 17L17 11L14 11 z M 7 15L7 17L12 17L12 15L7 15 z" fill="#1C2AAF" />
</svg>